<svg xmlns="http://www.w3.org/2000/svg" viewBox="0 0 1000 1100"><defs><style>.cls-1{fill:#c7b299;}</style></defs><title>arm_højre</title><g id="Lag_8" data-name="Lag 8"><path class="cls-1" d="M872.55,960.42C860.11,920.9,855.88,868.69,819.44,817c-16.18-22.93,0,0-26.59-20.64-25.2-19.56-47.81-46.24-64.54-55.57-13.53-7.54-44.53-30.34-57.66-39.46-62.39-43.31-107.59-90.81-147.83-133.73-18-19.25-48.93-52.21-72.74-70.95-11.62-9.15-38.56-40.25-61.52-63.76l-1.3-2.39,0,0L347,388.28l-10.29-24.06-1.47-15.55L345,321.29l0-.07L342.91,297l5.83-20.41,3.85-25.85L356,230.24l-2.19-19.5-5.17-9.38L334.4,190l-17.3-15.09L302.23,157.4l-13.57-18.24L273.2,126.92l-14.26-.74-10.18,3.29-.28-6.39L233.7,106.42l0,0L217.5,97.76l-17.12-2.68-26.29,9.78-.1,0-8.11,11.85,4,16.37-22.7.46h-.12L131.55,146.7l-11.44,16.7-5.49,15.24,4.48,8.68L91.83,205.89l-7.92,19.94,0,.11,9.53,27.65-9.77,14.28L74.34,291l.52,18.34,4.54,8.86-2.63,16.95L88.2,352l18.15,24.64,12.68,16,22.81,26.2,28.23,26.66,28.09,18.4,11.81,8.9,0,0L226.08,479l26.38,25.76,8,18.42c.81,4.89,3.67,11.19,9.27,19.43,22.7,33.45,36.67,64.18,131.68,174,34,39.28,73.28,101.18,116,144.53,13.74,13.93,15.47,22.78,29.29,35.54,51.87,47.9,103.69,87.22,150.52,115.36a494.35,494.35,0,0,0,57.12,29.83c51.57,22.37,92.28,25.9,112.8,5.68C884.1,1030.74,885,1000,872.55,960.42Z"/><polygon points="196.04 207.23 174.55 190.89 170.4 187.19 167.44 181.87 167.16 175 168.96 166.34 173.64 161.97 173.74 161.95 204.66 157.12 221.88 146.19 248.73 129.56 249.09 130.13 222.24 146.76 204.91 157.76 173.95 162.6 169.57 166.69 167.82 175.09 168.11 181.68 170.96 186.82 174.97 190.37 196.3 206.58 224.27 209.52 247.89 207.02 265.02 200.93 275.85 192.18 276.58 191.11 277.14 191.49 276.31 192.67 265.3 201.54 248 207.68 224.24 210.19 196.04 207.23"/><polygon points="273.58 203.93 273.64 198.99 281.66 187.26 282.22 187.64 274.31 199.2 274.25 203.94 273.58 203.93"/><polygon points="181.97 186.2 176.28 182.29 170.7 175.97 168.37 169.43 169 169.21 171.31 175.68 176.76 181.82 182.18 185.53 191.72 185.65 205.88 181.55 224.85 175.11 230.45 166.92 232.34 161.84 231.51 154.91 224.67 144.88 225.22 144.5 232.16 154.67 233.03 161.92 231.03 167.27 225.28 175.68 225.17 175.71 206.09 182.19 191.76 186.32 181.97 186.2"/><polygon points="237.65 248.73 235.26 247.09 233.5 237.69 226.39 227.97 216.68 214.81 217.22 214.41 226.93 227.58 234.14 237.49 235.87 246.69 237.9 248.09 246.66 249.29 258.1 244.29 265.57 233.38 264.48 217.35 256.29 204.47 256.86 204.11 265.13 217.14 265.14 217.22 266.25 233.56 258.55 244.83 246.76 249.98 237.65 248.73"/><polygon points="228.57 229.16 231.67 222.23 231.73 222.18 239.71 215.32 255.1 213.42 262.64 221.96 266.23 233.37 265.59 233.57 262.02 222.23 254.84 214.13 240 215.96 232.22 222.64 229.19 229.43 228.57 229.16"/><polygon points="194.49 240.99 194.55 236 199.26 231.61 211.26 225.98 222.63 222.15 222.85 222.78 211.51 226.6 199.6 232.2 195.22 236.29 195.16 241 194.49 240.99"/><polygon points="205.2 286.76 200.56 283.59 194.72 270.57 191.12 261.64 177.73 249.23 164.09 235.83 151.7 221.58 145.06 204.08 131.84 195.04 119.46 188.19 119.79 187.61 132.19 194.47 145.61 203.65 145.65 203.75 152.31 221.29 164.58 235.37 178.19 248.75 191.69 261.25 195.34 270.31 201.1 283.14 205.33 286.04 216.15 283.06 227.12 275.26 232.98 263.17 234.26 249.46 234.93 249.52 233.61 263.41 227.65 275.71 227.58 275.76 216.39 283.69 205.2 286.76"/><polygon points="208.47 285.45 207.7 272.85 208.56 264.34 210.51 261.49 216.26 255.51 223.65 250.71 223.73 250.7 231.98 249.65 234.28 253.79 233.69 254.12 231.61 250.38 223.89 251.36 216.66 256.05 211.03 261.92 209.21 264.57 208.37 272.86 209.15 285.4 208.47 285.45"/><path d="M163.72,316.18l-.07-.05,0-.07a67.61,67.61,0,0,0-4.11-6.83c-.56-.39-4.59-8.88-6.29-12.51L146.1,287l-9.87-11.62-24.36-16.67-8.59-5.08-9,.26,0-.67,9.23-.26,8.78,5.18,24.45,16.74,9.95,11.7,7.16,9.8c2.14,4.54,5.66,11.84,6.13,12.31h0c.55.38,3.34,5.34,4.25,7,3.39,2.32,7.23,4.68,7.83,4.66.94-.18,8.17,1.3,9.6,1.6l7.16.08,7.69-1.91,4.45-6.5,2.68-8.63L203,291.64l-1.77-6.88.65-.17,1.79,7,.57,13.54-2.76,8.81-4.62,6.76-8.06,2-7.27-.09c-3.34-.69-8.78-1.73-9.42-1.61C171.15,321.17,165.92,317.68,163.72,316.18Z"/><polygon points="186.06 322.44 182.06 311.48 184.68 301.62 190.43 293.21 196.9 291.01 202.79 289.46 202.96 290.11 197.09 291.66 190.86 293.77 185.26 301.95 182.76 311.45 186.7 322.21 186.06 322.44"/><polygon points="167.32 287.57 167.16 286.92 174 285.16 179.74 280.27 184.62 273.14 187.16 265.87 189.06 263.1 189.61 263.48 187.74 266.21 185.2 273.49 180.21 280.76 174.31 285.77 167.32 287.57"/><path d="M132.22,346.73l0,0c-.08-.08-8.28-8.11-9.9-9.22-1.13-.77-3.88-4-8.16-9.67-.92-1.22-5.11-4.29-8.41-6.55a47.26,47.26,0,0,0-6.37-1.14l.09-.67c1.42.19,6.08.86,6.65,1.25,1.22.83,7.32,5.05,8.57,6.7,5.28,7,7.27,9,8,9.53,1.63,1.11,9.27,8.59,10,9.25l13.2,6.62,13.55-1.11,9.73-14.22,2.24-16.29.66.09-2.25,16.45-10,14.61-14.05,1.16-.09-.05Z"/><polygon points="94.65 288.04 94.09 287.66 106.59 269.4 109.64 260.25 108.94 256.85 109.6 256.71 110.33 260.29 107.17 269.74 94.65 288.04"/><path d="M135.85,312.41c0-.7-.27-6.86.53-8,.21-.31.47-.79.78-1.34.77-1.42,1.73-3.19,2.75-3.75a25.07,25.07,0,0,1,6.08-1.64c.9-.17,3.86-.31,4.29-.33l3.14-1.06.21.64L150.36,298s-3.35.15-4.25.32c-3.81.71-5.3,1.25-5.88,1.57-.84.47-1.79,2.21-2.48,3.48-.32.57-.59,1.07-.82,1.4-.5.74-.52,5.07-.41,7.62Z"/><polygon points="159.75 351.72 157.46 350.15 154.33 343.89 151 339.12 149.2 332.1 151.2 326.71 163.38 318.56 166.53 317.4 166.76 318.03 163.66 319.18 151.75 327.15 149.9 332.14 151.64 338.9 154.9 343.55 157.98 349.7 160.13 351.17 159.75 351.72"/><polygon points="102.12 347.15 101.96 346.5 110.75 344.37 119.97 340.26 122.19 337.01 122.75 337.39 120.42 340.79 110.96 345 102.12 347.15"/><polygon points="131.64 367.3 131.91 360.87 135.04 356.29 141.68 352.61 142.01 353.19 135.51 356.8 132.57 361.09 132.31 367.33 131.64 367.3"/><polygon points="234.18 382.31 216.27 370.02 209.45 359.56 208.22 353.03 208.88 352.9 210.1 359.38 216.79 369.59 234.4 381.65 238.22 381.88 238.18 382.55 234.18 382.31"/><polygon points="186.01 159.6 183.66 154.77 178.73 148.96 169.94 133.15 170.53 132.82 179.28 148.58 184.25 154.43 186.61 159.31 186.01 159.6"/><polygon points="190.36 120.91 190.81 115.31 203.46 110.01 207.01 104.83 210.06 106.91 209.68 107.47 207.18 105.76 203.9 110.56 191.45 115.77 191.03 120.96 190.36 120.91"/><polygon points="145.85 162.03 145.47 161.48 157.44 153.46 161.96 146.86 162.51 147.24 157.87 153.98 145.85 162.03"/><polygon points="104.44 222.49 104.16 221.88 120.94 213.93 130.76 199.59 131.31 199.97 121.39 214.46 121.31 214.5 104.44 222.49"/><polygon points="254.68 378.43 233.78 360.05 213.27 341.12 213.24 341.06 204.34 321.94 204.95 321.66 213.82 340.71 234.23 359.55 255 377.82 282.73 384.65 286.97 384.33 287.02 385 282.62 385.31 254.68 378.43"/><rect x="314.7" y="231.25" width="0.67" height="15.51" transform="translate(-4.68 471.71) rotate(-73.23)"/><rect x="293.53" y="216.76" width="0.67" height="48.08" transform="translate(-54.65 392.06) rotate(-62.79)"/><polygon points="233.99 273.57 233.51 273.09 246.6 259.95 246.7 259.93 275.98 253.96 282.5 250.34 282.82 250.93 276.16 254.61 246.93 260.57 233.99 273.57"/></g></svg>
