<svg xmlns="http://www.w3.org/2000/svg" viewBox="0 0 420 110"><defs><style>.cls-1{font-size:48.06px;font-family:Apple-Chancery, Apple Chancery;}</style></defs><title>menu_sound</title><g id="Lag_12" data-name="Lag 12"><path d="M30.2,52.51a8.63,8.63,0,0,1,4.46,1.12l-1.08,2.24V19.53h1.63c.6,3.26,1.79,4.88,6.8,9.09a11.36,11.36,0,0,1,4.29,9,18.92,18.92,0,0,1-3.37,10l-1.09-.5a16.15,16.15,0,0,0,1.25-6.28,9.7,9.7,0,0,0-3.37-7.74c-1.47-1.4-3.15-2.64-5.22-4.43l1.25-3.2v27c0,6.17-2.88,9.87-7.94,9.87-2.94,0-5-1.29-5-4C22.81,55,25.8,52.51,30.2,52.51Z"/><text class="cls-1" transform="translate(126.47 55.49) scale(0.97 1)">sound on/of</text></g></svg>
