<svg xmlns="http://www.w3.org/2000/svg" xmlns:xlink="http://www.w3.org/1999/xlink" viewBox="0 0 820 430"><defs><style>.cls-1{fill:none;}.cls-2{clip-path:url(#clip-path);}.cls-3{fill:#fff;}.cls-4{fill:#fefefe;}.cls-5{fill:#fdfdfd;}.cls-6{fill:#fcfcfc;}.cls-7{fill:#fbfbfb;}.cls-8{fill:#fafafa;}.cls-9{fill:#f9f9f9;}.cls-10{fill:#f8f8f8;}.cls-11{fill:#f7f7f7;}.cls-12{fill:#f6f6f6;}.cls-13{fill:#f5f5f5;}.cls-14{fill:#f4f4f4;}.cls-15{fill:#f3f3f3;}.cls-16{fill:#f2f2f2;}.cls-17{fill:#f1f1f1;}.cls-18{fill:#f0f0f0;}.cls-19{fill:#efefef;}.cls-20{fill:#eee;}.cls-21{fill:#ededed;}.cls-22{fill:#ececec;}.cls-23{fill:#ebebeb;}.cls-24{fill:#eaeaea;}.cls-25{fill:#e9e9e9;}.cls-26{fill:#e8e8e8;}.cls-27{fill:#e7e7e7;}.cls-28{fill:#e6e6e6;}.cls-29{fill:#e5e5e5;}.cls-30{fill:#e4e4e4;}.cls-31{fill:#e3e3e3;}.cls-32{fill:#e2e2e2;}.cls-33{fill:#e1e1e1;}.cls-34{fill:#e0e0e0;}.cls-35{fill:#dfdfdf;}.cls-36{fill:#dedede;}.cls-37{fill:#ddd;}.cls-38{fill:#dcdcdc;}.cls-39{fill:#dbdbdb;}.cls-40{fill:#dadada;}.cls-41{fill:#d9d9d9;}.cls-42{fill:#d8d8d8;}.cls-43{fill:#d7d7d7;}.cls-44{fill:#d6d6d6;}.cls-45{fill:#d5d5d5;}.cls-46{fill:#d4d4d4;}.cls-47{fill:#d3d3d3;}.cls-48{fill:#d2d2d2;}.cls-49{fill:#d1d1d1;}.cls-50{fill:#d0d0d0;}.cls-51{fill:#cfcfcf;}.cls-52{fill:#cecece;}.cls-53{fill:#cdcdcd;}.cls-54{fill:#cccccb;}.cls-55{fill:#cbcbca;}.cls-56{fill:#cacac9;}.cls-57{fill:#c9c9c8;}.cls-58{fill:#c8c8c7;}.cls-59{fill:#c7c7c6;}.cls-60{fill:#c6c6c5;}.cls-61{fill:#c5c5c4;}.cls-62{fill:#c4c4c3;}.cls-63{fill:#c3c3c2;}.cls-64{fill:#c2c2c1;}.cls-65{fill:#c1c1c0;}.cls-66{fill:#c0c0bf;}.cls-67{fill:#bfbfbe;}.cls-68{fill:#bebebd;}.cls-69{fill:#bdbdbc;}.cls-70{fill:#bcbcbb;}.cls-71{fill:#bbbbba;}.cls-72{fill:#babab9;}.cls-73{fill:#b9b9b8;}.cls-74{fill:#b8b8b7;}.cls-75{fill:#b7b7b6;}.cls-76{fill:#b6b6b5;}.cls-77{fill:#b5b5b4;}.cls-78{fill:#b4b4b3;}.cls-79{fill:#b3b3b2;}.cls-80{fill:#b2b2b1;}.cls-81{fill:#b1b1b0;}.cls-82{fill:#b0b0af;}.cls-83{fill:#afafae;}.cls-84{fill:#aeaead;}.cls-85{fill:#adadac;}.cls-86{fill:#acacab;}.cls-87{fill:#ababaa;}.cls-88{fill:#aaaaa9;}.cls-89{fill:#a9a9a8;}.cls-90{fill:#a8a8a7;}.cls-91{fill:#a7a7a6;}.cls-92{fill:#a6a6a5;}.cls-93{fill:#a5a5a4;}.cls-94{fill:#a4a4a3;}.cls-95{fill:#a3a3a2;}.cls-96{fill:#a2a2a1;}.cls-97{fill:#a1a1a0;}.cls-98{fill:#a0a09f;}.cls-99{fill:#9f9f9e;}.cls-100{fill:#9e9e9d;}.cls-101{fill:#9d9d9c;}.cls-102{fill:#9c9c9b;}.cls-103{fill:#9b9b9a;}.cls-104{clip-path:url(#clip-path-2);}.cls-105{opacity:0.9;}.cls-106{fill:url(#Ikke-navngivet_forløb_30);}.cls-107{clip-path:url(#clip-path-3);}</style><clipPath id="clip-path"><polygon class="cls-1" points="685.58 304.34 651.68 271.36 688.32 233.28 722.22 266.27 685.58 304.34"/></clipPath><clipPath id="clip-path-2"><polygon class="cls-1" points="710.61 222.49 710.5 222.48 663.71 220.25 663.22 205.19 650.67 38.01 752.65 42.87 710.61 222.49"/></clipPath><linearGradient id="Ikke-navngivet_forløb_30" x1="-353.13" y1="1056.79" x2="-291.64" y2="1056.79" gradientTransform="matrix(1.06, -0.42, 0.3, 1.12, 218.1, -936.65)" gradientUnits="userSpaceOnUse"><stop offset="0" stop-color="#fff"/><stop offset="1" stop-color="#7d7d7d"/></linearGradient><clipPath id="clip-path-3"><polygon class="cls-1" points="199.82 325.58 199.71 325.62 155.22 340.34 149.41 326.45 78.29 174.81 175.27 142.72 199.82 325.58"/></clipPath></defs><title>tekst_udråbstegn</title><g id="Lag_8" data-name="Lag 8"><g class="cls-2"><polygon class="cls-3" points="655.67 232.03 651.68 271.36 653.18 231.93 655.67 232.03"/><polygon class="cls-3" points="656.36 232.05 651.26 282.26 651.68 271.36 655.67 232.03 656.36 232.05"/><polygon class="cls-4" points="657.05 232.08 650.85 293.16 651.26 282.26 656.36 232.05 657.05 232.08"/><polygon class="cls-5" points="657.74 232.11 650.54 303 650.48 303 650.85 293.16 657.05 232.08 657.74 232.11"/><polygon class="cls-6" points="658.43 232.13 651.23 303.02 650.54 303 657.74 232.11 658.43 232.13"/><polygon class="cls-7" points="659.12 232.16 651.92 303.05 651.23 303.02 658.43 232.13 659.12 232.16"/><polygon class="cls-8" points="659.81 232.19 652.61 303.08 651.92 303.05 659.12 232.16 659.81 232.19"/><polygon class="cls-9" points="660.5 232.21 653.3 303.1 652.61 303.08 659.81 232.19 660.5 232.21"/><polygon class="cls-10" points="661.19 232.24 653.99 303.13 653.3 303.1 660.5 232.21 661.19 232.24"/><polygon class="cls-11" points="661.88 232.26 654.68 303.16 653.99 303.13 661.19 232.24 661.88 232.26"/><polygon class="cls-12" points="662.57 232.29 655.37 303.18 654.68 303.16 661.88 232.26 662.57 232.29"/><polygon class="cls-13" points="663.26 232.32 656.06 303.21 655.37 303.18 662.57 232.29 663.26 232.32"/><polygon class="cls-14" points="663.95 232.34 656.75 303.24 656.06 303.21 663.26 232.32 663.95 232.34"/><polygon class="cls-15" points="664.64 232.37 657.44 303.26 656.75 303.24 663.95 232.34 664.64 232.37"/><polygon class="cls-16" points="665.33 232.4 658.13 303.29 657.44 303.26 664.64 232.37 665.33 232.4"/><polygon class="cls-17" points="666.01 232.42 658.82 303.32 658.13 303.29 665.33 232.4 666.01 232.42"/><polygon class="cls-18" points="666.71 232.45 659.51 303.34 658.82 303.32 666.01 232.42 666.71 232.45"/><polygon class="cls-19" points="667.39 232.48 660.2 303.37 659.51 303.34 666.71 232.45 667.39 232.48"/><polygon class="cls-20" points="668.08 232.5 660.89 303.39 660.2 303.37 667.39 232.48 668.08 232.5"/><polygon class="cls-21" points="668.77 232.53 661.58 303.42 660.89 303.39 668.08 232.5 668.77 232.53"/><polygon class="cls-22" points="669.46 232.56 662.27 303.45 661.58 303.42 668.77 232.53 669.46 232.56"/><polygon class="cls-23" points="670.15 232.58 662.96 303.48 662.27 303.45 669.46 232.56 670.15 232.58"/><polygon class="cls-24" points="670.84 232.61 663.65 303.5 662.96 303.48 670.15 232.58 670.84 232.61"/><polygon class="cls-25" points="671.53 232.64 664.34 303.53 663.65 303.5 670.84 232.61 671.53 232.64"/><polygon class="cls-26" points="672.22 232.66 665.02 303.55 664.34 303.53 671.53 232.64 672.22 232.66"/><polygon class="cls-27" points="672.91 232.69 665.72 303.58 665.02 303.55 672.22 232.66 672.91 232.69"/><polygon class="cls-28" points="673.6 232.72 666.4 303.61 665.72 303.58 672.91 232.69 673.6 232.72"/><polygon class="cls-29" points="674.29 232.74 667.09 303.63 666.4 303.61 673.6 232.72 674.29 232.74"/><polygon class="cls-30" points="674.98 232.77 667.78 303.66 667.09 303.63 674.29 232.74 674.98 232.77"/><polygon class="cls-31" points="675.67 232.79 668.47 303.69 667.78 303.66 674.98 232.77 675.67 232.79"/><polygon class="cls-32" points="676.36 232.82 669.16 303.71 668.47 303.69 675.67 232.79 676.36 232.82"/><polygon class="cls-33" points="677.05 232.85 669.85 303.74 669.16 303.71 676.36 232.82 677.05 232.85"/><polygon class="cls-34" points="677.74 232.88 670.54 303.77 669.85 303.74 677.05 232.85 677.74 232.88"/><polygon class="cls-35" points="678.43 232.9 671.23 303.79 670.54 303.77 677.74 232.88 678.43 232.9"/><polygon class="cls-36" points="679.12 232.93 671.92 303.82 671.23 303.79 678.43 232.9 679.12 232.93"/><polygon class="cls-37" points="679.81 232.95 672.61 303.85 671.92 303.82 679.12 232.93 679.81 232.95"/><polygon class="cls-38" points="680.5 232.98 673.3 303.87 672.61 303.85 679.81 232.95 680.5 232.98"/><polygon class="cls-39" points="681.19 233.01 673.99 303.9 673.3 303.87 680.5 232.98 681.19 233.01"/><polygon class="cls-40" points="681.88 233.03 674.68 303.93 673.99 303.9 681.19 233.01 681.88 233.03"/><polygon class="cls-41" points="682.57 233.06 675.37 303.95 674.68 303.93 681.88 233.03 682.57 233.06"/><polygon class="cls-42" points="683.26 233.09 676.06 303.98 675.37 303.95 682.57 233.06 683.26 233.09"/><polygon class="cls-43" points="683.95 233.11 676.75 304 676.06 303.98 683.26 233.09 683.95 233.11"/><polygon class="cls-44" points="684.64 233.14 677.44 304.03 676.75 304 683.95 233.11 684.64 233.14"/><polygon class="cls-45" points="685.33 233.17 678.13 304.06 677.44 304.03 684.64 233.14 685.33 233.17"/><polygon class="cls-46" points="686.02 233.19 678.82 304.08 678.13 304.06 685.33 233.17 686.02 233.19"/><polygon class="cls-47" points="686.71 233.22 679.51 304.11 678.82 304.08 686.02 233.19 686.71 233.22"/><polygon class="cls-48" points="687.39 233.25 680.2 304.14 679.51 304.11 686.71 233.22 687.39 233.25"/><polygon class="cls-49" points="688.09 233.27 680.89 304.16 680.2 304.14 687.39 233.25 688.09 233.27"/><polygon class="cls-50" points="688.77 233.3 681.58 304.19 680.89 304.16 688.09 233.27 688.77 233.3"/><polygon class="cls-51" points="689.46 233.33 682.27 304.22 681.58 304.19 688.77 233.3 689.46 233.33"/><polygon class="cls-52" points="690.15 233.35 682.96 304.24 682.27 304.22 689.46 233.33 690.15 233.35"/><polygon class="cls-53" points="690.84 233.38 683.65 304.27 682.96 304.24 690.15 233.35 690.84 233.38"/><polygon class="cls-54" points="691.53 233.41 684.34 304.3 683.65 304.27 690.84 233.38 691.53 233.41"/><polygon class="cls-55" points="692.22 233.43 685.03 304.32 684.34 304.3 691.53 233.41 692.22 233.43"/><polygon class="cls-56" points="692.91 233.46 685.72 304.35 685.03 304.32 692.22 233.43 692.91 233.46"/><polygon class="cls-57" points="693.6 233.49 686.4 304.38 685.72 304.35 692.91 233.46 693.6 233.49"/><polygon class="cls-58" points="694.29 233.51 687.1 304.4 686.4 304.38 693.6 233.49 694.29 233.51"/><polygon class="cls-59" points="694.98 233.54 687.78 304.43 687.1 304.4 694.29 233.51 694.98 233.54"/><polygon class="cls-60" points="695.67 233.56 688.47 304.45 687.78 304.43 694.98 233.54 695.67 233.56"/><polygon class="cls-61" points="696.36 233.59 689.16 304.48 688.47 304.45 695.67 233.56 696.36 233.59"/><polygon class="cls-62" points="697.05 233.62 689.85 304.51 689.16 304.48 696.36 233.59 697.05 233.62"/><polygon class="cls-63" points="697.74 233.64 690.54 304.54 689.85 304.51 697.05 233.62 697.74 233.64"/><polygon class="cls-64" points="698.43 233.67 691.23 304.56 690.54 304.54 697.74 233.64 698.43 233.67"/><polygon class="cls-65" points="699.12 233.7 691.92 304.59 691.23 304.56 698.43 233.67 699.12 233.7"/><polygon class="cls-66" points="699.81 233.72 692.61 304.61 691.92 304.59 699.12 233.7 699.81 233.72"/><polygon class="cls-67" points="700.5 233.75 693.3 304.64 692.61 304.61 699.81 233.72 700.5 233.75"/><polygon class="cls-68" points="701.19 233.78 693.99 304.67 693.3 304.64 700.5 233.75 701.19 233.78"/><polygon class="cls-69" points="701.88 233.8 694.68 304.69 693.99 304.67 701.19 233.78 701.88 233.8"/><polygon class="cls-70" points="702.57 233.83 695.37 304.72 694.68 304.69 701.88 233.8 702.57 233.83"/><polygon class="cls-71" points="703.26 233.86 696.06 304.75 695.37 304.72 702.57 233.83 703.26 233.86"/><polygon class="cls-72" points="703.95 233.88 696.75 304.77 696.06 304.75 703.26 233.86 703.95 233.88"/><polygon class="cls-73" points="704.64 233.91 697.44 304.8 696.75 304.77 703.95 233.88 704.64 233.91"/><polygon class="cls-74" points="705.33 233.94 698.13 304.83 697.44 304.8 704.64 233.91 705.33 233.94"/><polygon class="cls-75" points="706.02 233.96 698.82 304.85 698.13 304.83 705.33 233.94 706.02 233.96"/><polygon class="cls-76" points="706.71 233.99 699.51 304.88 698.82 304.85 706.02 233.96 706.71 233.99"/><polygon class="cls-77" points="707.39 234.01 700.2 304.91 699.51 304.88 706.71 233.99 707.39 234.01"/><polygon class="cls-78" points="708.09 234.04 700.89 304.93 700.2 304.91 707.39 234.01 708.09 234.04"/><polygon class="cls-79" points="708.77 234.07 701.58 304.96 700.89 304.93 708.09 234.04 708.77 234.07"/><polygon class="cls-80" points="709.46 234.09 702.27 304.99 701.58 304.96 708.77 234.07 709.46 234.09"/><polygon class="cls-81" points="710.15 234.12 702.96 305.01 702.27 304.99 709.46 234.09 710.15 234.12"/><polygon class="cls-82" points="710.84 234.15 703.65 305.04 702.96 305.01 710.15 234.12 710.84 234.15"/><polygon class="cls-83" points="711.53 234.17 704.34 305.06 703.65 305.04 710.84 234.15 711.53 234.17"/><polygon class="cls-84" points="712.22 234.2 705.03 305.09 704.34 305.06 711.53 234.17 712.22 234.2"/><polygon class="cls-85" points="712.91 234.23 705.72 305.12 705.03 305.09 712.22 234.2 712.91 234.23"/><polygon class="cls-86" points="713.6 234.25 706.4 305.14 705.72 305.12 712.91 234.23 713.6 234.25"/><polygon class="cls-87" points="714.29 234.28 707.1 305.17 706.4 305.14 713.6 234.25 714.29 234.28"/><polygon class="cls-88" points="714.98 234.31 707.78 305.2 707.1 305.17 714.29 234.28 714.98 234.31"/><polygon class="cls-89" points="715.67 234.33 708.47 305.22 707.78 305.2 714.98 234.31 715.67 234.33"/><polygon class="cls-90" points="716.36 234.36 709.16 305.25 708.47 305.22 715.67 234.33 716.36 234.36"/><polygon class="cls-91" points="717.05 234.39 709.85 305.28 709.16 305.25 716.36 234.36 717.05 234.39"/><polygon class="cls-92" points="717.74 234.41 710.54 305.3 709.85 305.28 717.05 234.39 717.74 234.41"/><polygon class="cls-93" points="718.43 234.44 711.23 305.33 710.54 305.3 717.74 234.41 718.43 234.44"/><polygon class="cls-94" points="719.12 234.47 711.92 305.36 711.23 305.33 718.43 234.44 719.12 234.47"/><polygon class="cls-95" points="719.81 234.49 712.61 305.38 711.92 305.36 719.12 234.47 719.81 234.49"/><polygon class="cls-96" points="720.5 234.52 713.3 305.41 712.61 305.38 719.81 234.49 720.5 234.52"/><polygon class="cls-97" points="721.19 234.54 713.99 305.44 713.3 305.41 720.5 234.52 721.19 234.54"/><polygon class="cls-98" points="721.88 234.57 714.68 305.46 713.99 305.44 721.19 234.54 721.88 234.57"/><polygon class="cls-99" points="722.57 234.6 715.37 305.49 714.68 305.46 721.88 234.57 722.57 234.6"/><polygon class="cls-100" points="723.26 234.62 716.06 305.51 715.37 305.49 722.57 234.6 723.26 234.62"/><polygon class="cls-101" points="723.11 242.94 716.75 305.54 716.06 305.51 723.26 234.62 723.42 234.63 723.11 242.94"/><polygon class="cls-102" points="722.69 253.84 717.44 305.57 716.75 305.54 723.11 242.94 722.69 253.84"/><polygon class="cls-103" points="722.28 264.74 718.13 305.6 717.44 305.57 722.69 253.84 722.28 264.74"/><polygon class="cls-103" points="718.13 305.6 722.28 264.74 720.72 305.69 718.13 305.6"/></g><g class="cls-104"><path class="cls-3" d="M651.68,38l-5.19,110Z"/><polygon class="cls-4" points="652.69 38.08 644.11 219.93 643.76 219.92 646.49 148.06 651.68 38.05 652.69 38.08"/><polygon class="cls-5" points="653.7 38.12 645.12 219.97 644.11 219.93 652.69 38.08 653.7 38.12"/><polygon class="cls-6" points="654.71 38.16 646.12 220.01 645.12 219.97 653.7 38.12 654.71 38.16"/><polygon class="cls-7" points="655.71 38.2 647.13 220.05 646.12 220.01 654.71 38.16 655.71 38.2"/><polygon class="cls-8" points="656.72 38.24 648.14 220.09 647.13 220.05 655.71 38.2 656.72 38.24"/><polygon class="cls-9" points="657.73 38.28 649.15 220.13 648.14 220.09 656.72 38.24 657.73 38.28"/><polygon class="cls-10" points="658.74 38.32 650.16 220.16 649.15 220.13 657.73 38.28 658.74 38.32"/><polygon class="cls-11" points="659.75 38.35 651.17 220.2 650.16 220.16 658.74 38.32 659.75 38.35"/><polygon class="cls-12" points="660.76 38.39 652.18 220.24 651.17 220.2 659.75 38.35 660.76 38.39"/><polygon class="cls-13" points="661.77 38.43 653.18 220.28 652.18 220.24 660.76 38.39 661.77 38.43"/><polygon class="cls-14" points="662.77 38.47 654.19 220.32 653.18 220.28 661.77 38.43 662.77 38.47"/><polygon class="cls-15" points="663.78 38.51 655.2 220.36 654.19 220.32 662.77 38.47 663.78 38.51"/><polygon class="cls-16" points="664.79 38.55 656.21 220.4 655.2 220.36 663.78 38.51 664.79 38.55"/><polygon class="cls-17" points="665.8 38.59 657.22 220.44 656.21 220.4 664.79 38.55 665.8 38.59"/><polygon class="cls-18" points="666.81 38.63 658.23 220.47 657.22 220.44 665.8 38.59 666.81 38.63"/><polygon class="cls-19" points="667.82 38.66 659.24 220.51 658.23 220.47 666.81 38.63 667.82 38.66"/><polygon class="cls-20" points="668.83 38.7 660.25 220.55 659.24 220.51 667.82 38.66 668.83 38.7"/><polygon class="cls-21" points="669.84 38.74 661.25 220.59 660.25 220.55 668.83 38.7 669.84 38.74"/><polygon class="cls-22" points="670.85 38.78 662.26 220.63 661.25 220.59 669.84 38.74 670.85 38.78"/><polygon class="cls-23" points="671.85 38.82 663.27 220.67 662.26 220.63 670.85 38.78 671.85 38.82"/><polygon class="cls-24" points="672.86 38.86 664.28 220.71 663.27 220.67 671.85 38.82 672.86 38.86"/><polygon class="cls-25" points="673.87 38.9 665.29 220.75 664.28 220.71 672.86 38.86 673.87 38.9"/><polygon class="cls-26" points="674.88 38.94 666.3 220.78 665.29 220.75 673.87 38.9 674.88 38.94"/><polygon class="cls-27" points="675.89 38.98 667.31 220.82 666.3 220.78 674.88 38.94 675.89 38.98"/><polygon class="cls-28" points="676.9 39.01 668.32 220.86 667.31 220.82 675.89 38.98 676.9 39.01"/><polygon class="cls-29" points="677.91 39.05 669.33 220.9 668.32 220.86 676.9 39.01 677.91 39.05"/><polygon class="cls-30" points="678.91 39.09 670.33 220.94 669.33 220.9 677.91 39.05 678.91 39.09"/><polygon class="cls-31" points="679.92 39.13 671.34 220.98 670.33 220.94 678.91 39.09 679.92 39.13"/><polygon class="cls-32" points="680.93 39.17 672.35 221.02 671.34 220.98 679.92 39.13 680.93 39.17"/><polygon class="cls-33" points="681.94 39.21 673.36 221.06 672.35 221.02 680.93 39.17 681.94 39.21"/><polygon class="cls-34" points="682.95 39.25 674.37 221.09 673.36 221.06 681.94 39.21 682.95 39.25"/><polygon class="cls-35" points="683.96 39.28 675.38 221.13 674.37 221.09 682.95 39.25 683.96 39.28"/><polygon class="cls-36" points="684.97 39.32 676.39 221.17 675.38 221.13 683.96 39.28 684.97 39.32"/><polygon class="cls-37" points="685.98 39.36 677.39 221.21 676.39 221.17 684.97 39.32 685.98 39.36"/><polygon class="cls-38" points="686.99 39.4 678.4 221.25 677.39 221.21 685.98 39.36 686.99 39.4"/><polygon class="cls-39" points="687.99 39.44 679.41 221.29 678.4 221.25 686.99 39.4 687.99 39.44"/><polygon class="cls-40" points="689 39.48 680.42 221.33 679.41 221.29 687.99 39.44 689 39.48"/><polygon class="cls-41" points="690.01 39.52 681.43 221.37 680.42 221.33 689 39.48 690.01 39.52"/><polygon class="cls-42" points="691.02 39.56 682.44 221.41 681.43 221.37 690.01 39.52 691.02 39.56"/><polygon class="cls-43" points="692.03 39.59 683.45 221.44 682.44 221.41 691.02 39.56 692.03 39.59"/><polygon class="cls-44" points="693.04 39.63 684.46 221.48 683.45 221.44 692.03 39.59 693.04 39.63"/><polygon class="cls-45" points="694.05 39.67 685.46 221.52 684.46 221.48 693.04 39.63 694.05 39.67"/><polygon class="cls-46" points="695.05 39.71 686.47 221.56 685.46 221.52 694.05 39.67 695.05 39.71"/><polygon class="cls-47" points="696.06 39.75 687.48 221.6 686.47 221.56 695.05 39.71 696.06 39.75"/><polygon class="cls-48" points="697.07 39.79 688.49 221.64 687.48 221.6 696.06 39.75 697.07 39.79"/><polygon class="cls-49" points="698.08 39.83 689.5 221.68 688.49 221.64 697.07 39.79 698.08 39.83"/><polygon class="cls-50" points="699.09 39.87 690.51 221.72 689.5 221.68 698.08 39.83 699.09 39.87"/><polygon class="cls-51" points="700.1 39.91 691.52 221.75 690.51 221.72 699.09 39.87 700.1 39.91"/><polygon class="cls-52" points="701.11 39.94 692.53 221.79 691.52 221.75 700.1 39.91 701.11 39.94"/><polygon class="cls-53" points="702.12 39.98 693.53 221.83 692.53 221.79 701.11 39.94 702.12 39.98"/><polygon class="cls-54" points="703.12 40.02 694.54 221.87 693.53 221.83 702.12 39.98 703.12 40.02"/><polygon class="cls-55" points="704.13 40.06 695.55 221.91 694.54 221.87 703.12 40.02 704.13 40.06"/><polygon class="cls-56" points="705.14 40.1 696.56 221.95 695.55 221.91 704.13 40.06 705.14 40.1"/><polygon class="cls-57" points="706.15 40.14 697.57 221.99 696.56 221.95 705.14 40.1 706.15 40.14"/><polygon class="cls-58" points="707.16 40.18 698.58 222.03 697.57 221.99 706.15 40.14 707.16 40.18"/><polygon class="cls-59" points="708.17 40.22 699.59 222.06 698.58 222.03 707.16 40.18 708.17 40.22"/><polygon class="cls-60" points="709.18 40.25 700.6 222.1 699.59 222.06 708.17 40.22 709.18 40.25"/><polygon class="cls-61" points="710.18 40.29 701.6 222.14 700.6 222.1 709.18 40.25 710.18 40.29"/><polygon class="cls-62" points="711.19 40.33 702.61 222.18 701.6 222.14 710.18 40.29 711.19 40.33"/><polygon class="cls-63" points="712.2 40.37 703.62 222.22 702.61 222.18 711.19 40.33 712.2 40.37"/><polygon class="cls-64" points="713.21 40.41 704.63 222.26 703.62 222.22 712.2 40.37 713.21 40.41"/><polygon class="cls-65" points="714.22 40.45 705.64 222.3 704.63 222.26 713.21 40.41 714.22 40.45"/><polygon class="cls-66" points="715.23 40.49 706.65 222.34 705.64 222.3 714.22 40.45 715.23 40.49"/><polygon class="cls-67" points="716.24 40.53 707.66 222.38 706.65 222.34 715.23 40.49 716.24 40.53"/><polygon class="cls-68" points="717.25 40.56 708.66 222.41 707.66 222.38 716.24 40.53 717.25 40.56"/><polygon class="cls-69" points="718.25 40.6 709.67 222.45 708.66 222.41 717.25 40.56 718.25 40.6"/><polygon class="cls-70" points="719.26 40.64 710.68 222.49 709.67 222.45 718.25 40.6 719.26 40.64"/><polygon class="cls-71" points="720.27 40.68 711.69 222.53 710.68 222.49 719.26 40.64 720.27 40.68"/><polygon class="cls-72" points="721.28 40.72 712.7 222.57 711.69 222.53 720.27 40.68 721.28 40.72"/><polygon class="cls-73" points="722.29 40.76 713.71 222.61 712.7 222.57 721.28 40.72 722.29 40.76"/><polygon class="cls-74" points="723.3 40.8 714.72 222.65 713.71 222.61 722.29 40.76 723.3 40.8"/><polygon class="cls-75" points="724.31 40.84 715.73 222.69 714.72 222.65 723.3 40.8 724.31 40.84"/><polygon class="cls-76" points="725.32 40.88 716.74 222.72 715.73 222.69 724.31 40.84 725.32 40.88"/><polygon class="cls-77" points="726.33 40.91 717.74 222.76 716.74 222.72 725.32 40.88 726.33 40.91"/><polygon class="cls-78" points="727.33 40.95 718.75 222.8 717.74 222.76 726.33 40.91 727.33 40.95"/><polygon class="cls-79" points="728.34 40.99 719.76 222.84 718.75 222.8 727.33 40.95 728.34 40.99"/><polygon class="cls-80" points="729.35 41.03 720.77 222.88 719.76 222.84 728.34 40.99 729.35 41.03"/><polygon class="cls-81" points="730.36 41.07 721.78 222.92 720.77 222.88 729.35 41.03 730.36 41.07"/><polygon class="cls-82" points="731.37 41.11 722.79 222.96 721.78 222.92 730.36 41.07 731.37 41.11"/><polygon class="cls-83" points="732.38 41.15 723.8 223 722.79 222.96 731.37 41.11 732.38 41.15"/><polygon class="cls-84" points="733.39 41.19 724.8 223.03 723.8 223 732.38 41.15 733.39 41.19"/><polygon class="cls-85" points="734.39 41.22 725.81 223.07 724.8 223.03 733.39 41.19 734.39 41.22"/><polygon class="cls-86" points="735.4 41.26 726.82 223.11 725.81 223.07 734.39 41.22 735.4 41.26"/><polygon class="cls-87" points="736.41 41.3 727.83 223.15 726.82 223.11 735.4 41.26 736.41 41.3"/><polygon class="cls-88" points="737.42 41.34 728.84 223.19 727.83 223.15 736.41 41.3 737.42 41.34"/><polygon class="cls-89" points="738.43 41.38 729.85 223.23 728.84 223.19 737.42 41.34 738.43 41.38"/><polygon class="cls-90" points="739.44 41.42 730.86 223.27 729.85 223.23 738.43 41.38 739.44 41.42"/><polygon class="cls-91" points="740.45 41.46 731.87 223.31 730.86 223.27 739.44 41.42 740.45 41.46"/><polygon class="cls-92" points="741.46 41.49 732.88 223.34 731.87 223.31 740.45 41.46 741.46 41.49"/><polygon class="cls-93" points="742.47 41.53 733.88 223.38 732.88 223.34 741.46 41.49 742.47 41.53"/><polygon class="cls-94" points="743.47 41.57 734.89 223.42 733.88 223.38 742.47 41.53 743.47 41.57"/><polygon class="cls-95" points="744.48 41.61 735.9 223.46 734.89 223.42 743.47 41.57 744.48 41.61"/><polygon class="cls-96" points="745.49 41.65 736.91 223.5 735.9 223.46 744.48 41.61 745.49 41.65"/><polygon class="cls-97" points="746.5 41.69 737.92 223.54 736.91 223.5 745.49 41.65 746.5 41.69"/><polygon class="cls-98" points="747.51 41.73 738.93 223.58 737.92 223.54 746.5 41.69 747.51 41.73"/><polygon class="cls-99" points="748.52 41.77 739.94 223.62 738.93 223.58 747.51 41.73 748.52 41.77"/><polygon class="cls-100" points="749.53 41.8 740.95 223.65 739.94 223.62 748.52 41.77 749.53 41.8"/><polygon class="cls-101" points="750.53 41.84 741.95 223.69 740.95 223.65 749.53 41.8 750.53 41.84"/><polygon class="cls-102" points="751.54 41.88 742.96 223.73 741.95 223.69 750.53 41.84 751.54 41.88"/><polygon class="cls-103" points="752.55 41.92 743.97 223.77 742.96 223.73 751.54 41.88 752.55 41.92"/><polygon class="cls-103" points="743.97 223.77 752.55 41.92 752.68 41.93 745.77 223.84 743.97 223.77"/></g><polygon class="cls-28" points="685.68 298.63 657.33 271.04 687.97 239.2 716.32 266.79 685.68 298.63"/><g class="cls-105"><polygon class="cls-28" points="708.58 219.02 708.48 219.01 668.04 217.08 667.68 202.82 657.48 44.47 745.62 48.67 708.58 219.02"/></g><polygon class="cls-106" points="205.52 411.03 162.14 392.4 182.83 343.67 226.22 362.3 205.52 411.03"/><g class="cls-107"><polygon class="cls-3" points="78.29 174.81 132.17 339.45 72.12 337.15 78.29 174.81"/><polygon class="cls-3" points="78.36 173.03 78.73 172.91 133.25 339.5 132.17 339.45 78.29 174.81 78.36 173.03"/><polygon class="cls-4" points="78.73 172.91 79.69 172.59 134.32 339.54 133.25 339.5 78.73 172.91"/><polygon class="cls-5" points="79.69 172.59 80.65 172.27 135.4 339.58 134.32 339.54 79.69 172.59"/><polygon class="cls-6" points="80.65 172.27 81.61 171.96 136.48 339.62 135.4 339.58 80.65 172.27"/><polygon class="cls-7" points="81.61 171.96 82.57 171.64 137.55 339.66 136.48 339.62 81.61 171.96"/><polygon class="cls-8" points="82.57 171.64 83.53 171.32 138.63 339.7 137.55 339.66 82.57 171.64"/><polygon class="cls-9" points="83.53 171.32 84.48 171 139.71 339.74 138.63 339.7 83.53 171.32"/><polygon class="cls-10" points="84.48 171 85.44 170.69 140.78 339.79 139.71 339.74 84.48 171"/><polygon class="cls-11" points="85.44 170.69 86.4 170.37 141.86 339.83 140.78 339.79 85.44 170.69"/><polygon class="cls-12" points="86.4 170.37 87.36 170.05 142.93 339.87 141.86 339.83 86.4 170.37"/><polygon class="cls-13" points="87.36 170.05 88.32 169.74 144.01 339.91 142.93 339.87 87.36 170.05"/><polygon class="cls-14" points="88.32 169.74 89.28 169.42 145.09 339.95 144.01 339.91 88.32 169.74"/><polygon class="cls-15" points="89.28 169.42 90.24 169.1 146.16 339.99 145.09 339.95 89.28 169.42"/><polygon class="cls-16" points="90.24 169.1 91.2 168.78 147.24 340.03 146.16 339.99 90.24 169.1"/><polygon class="cls-17" points="91.2 168.78 92.16 168.47 148.31 340.07 147.24 340.03 91.2 168.78"/><polygon class="cls-18" points="92.16 168.47 93.11 168.15 149.39 340.12 148.31 340.07 92.16 168.47"/><polygon class="cls-19" points="93.11 168.15 94.07 167.83 150.47 340.16 149.39 340.12 93.11 168.15"/><polygon class="cls-20" points="94.07 167.83 95.03 167.51 151.54 340.2 150.47 340.16 94.07 167.83"/><polygon class="cls-21" points="95.03 167.51 95.99 167.2 152.62 340.24 151.54 340.2 95.03 167.51"/><polygon class="cls-22" points="95.99 167.2 96.95 166.88 153.7 340.28 152.62 340.24 95.99 167.2"/><polygon class="cls-23" points="96.95 166.88 97.91 166.56 154.77 340.32 153.7 340.28 96.95 166.88"/><polygon class="cls-24" points="97.91 166.56 98.87 166.25 155.85 340.36 154.77 340.32 97.91 166.56"/><polygon class="cls-25" points="98.87 166.25 99.83 165.93 156.92 340.41 155.85 340.36 98.87 166.25"/><polygon class="cls-26" points="99.83 165.93 100.78 165.61 158 340.45 156.92 340.41 99.83 165.93"/><polygon class="cls-27" points="100.78 165.61 101.74 165.29 159.08 340.49 158 340.45 100.78 165.61"/><polygon class="cls-28" points="101.74 165.29 102.7 164.98 160.13 340.47 159.97 340.52 159.08 340.49 101.74 165.29"/><polygon class="cls-29" points="102.7 164.98 103.66 164.66 161.09 340.15 160.13 340.47 102.7 164.98"/><polygon class="cls-30" points="103.66 164.66 104.62 164.34 162.05 339.83 161.09 340.15 103.66 164.66"/><polygon class="cls-31" points="104.62 164.34 105.58 164.02 163.01 339.52 162.05 339.83 104.62 164.34"/><polygon class="cls-32" points="105.58 164.02 106.54 163.71 163.97 339.2 163.01 339.52 105.58 164.02"/><polygon class="cls-33" points="106.54 163.71 107.5 163.39 164.93 338.88 163.97 339.2 106.54 163.71"/><polygon class="cls-34" points="107.5 163.39 108.45 163.07 165.89 338.57 164.93 338.88 107.5 163.39"/><polygon class="cls-35" points="108.45 163.07 109.41 162.75 166.84 338.25 165.89 338.57 108.45 163.07"/><polygon class="cls-36" points="109.41 162.75 110.37 162.44 167.8 337.93 166.84 338.25 109.41 162.75"/><polygon class="cls-37" points="110.37 162.44 111.33 162.12 168.76 337.61 167.8 337.93 110.37 162.44"/><polygon class="cls-38" points="111.33 162.12 112.29 161.8 169.72 337.3 168.76 337.61 111.33 162.12"/><polygon class="cls-39" points="112.29 161.8 113.25 161.49 170.68 336.98 169.72 337.3 112.29 161.8"/><polygon class="cls-40" points="113.25 161.49 114.21 161.17 171.64 336.66 170.68 336.98 113.25 161.49"/><polygon class="cls-41" points="114.21 161.17 115.17 160.85 172.6 336.35 171.64 336.66 114.21 161.17"/><polygon class="cls-42" points="115.17 160.85 116.13 160.53 173.56 336.03 172.6 336.35 115.17 160.85"/><polygon class="cls-43" points="116.13 160.53 117.08 160.22 174.52 335.71 173.56 336.03 116.13 160.53"/><polygon class="cls-44" points="117.08 160.22 118.04 159.9 175.47 335.39 174.52 335.71 117.08 160.22"/><polygon class="cls-45" points="118.04 159.9 119 159.58 176.43 335.08 175.47 335.39 118.04 159.9"/><polygon class="cls-46" points="119 159.58 119.96 159.26 177.39 334.76 176.43 335.08 119 159.58"/><polygon class="cls-47" points="119.96 159.26 120.92 158.95 178.35 334.44 177.39 334.76 119.96 159.26"/><polygon class="cls-48" points="120.92 158.95 121.88 158.63 179.31 334.12 178.35 334.44 120.92 158.95"/><polygon class="cls-49" points="121.88 158.63 122.84 158.31 180.27 333.81 179.31 334.12 121.88 158.63"/><polygon class="cls-50" points="122.84 158.31 123.8 158 181.23 333.49 180.27 333.81 122.84 158.31"/><polygon class="cls-51" points="123.8 158 124.75 157.68 182.19 333.17 181.23 333.49 123.8 158"/><polygon class="cls-52" points="124.75 157.68 125.71 157.36 183.15 332.86 182.19 333.17 124.75 157.68"/><polygon class="cls-53" points="125.71 157.36 126.67 157.04 184.1 332.54 183.15 332.86 125.71 157.36"/><polygon class="cls-54" points="126.67 157.04 127.63 156.73 185.06 332.22 184.1 332.54 126.67 157.04"/><polygon class="cls-55" points="127.63 156.73 128.59 156.41 186.02 331.9 185.06 332.22 127.63 156.73"/><polygon class="cls-56" points="128.59 156.41 129.55 156.09 186.98 331.59 186.02 331.9 128.59 156.41"/><polygon class="cls-57" points="129.55 156.09 130.51 155.78 187.94 331.27 186.98 331.59 129.55 156.09"/><polygon class="cls-58" points="130.51 155.78 131.47 155.46 188.9 330.95 187.94 331.27 130.51 155.78"/><polygon class="cls-59" points="131.47 155.46 132.43 155.14 189.86 330.63 188.9 330.95 131.47 155.46"/><polygon class="cls-60" points="132.43 155.14 133.38 154.82 190.82 330.32 189.86 330.63 132.43 155.14"/><polygon class="cls-61" points="133.38 154.82 134.34 154.51 191.78 330 190.82 330.32 133.38 154.82"/><polygon class="cls-62" points="134.34 154.51 135.3 154.19 192.73 329.68 191.78 330 134.34 154.51"/><polygon class="cls-63" points="135.3 154.19 136.26 153.87 193.69 329.37 192.73 329.68 135.3 154.19"/><polygon class="cls-64" points="136.26 153.87 137.22 153.55 194.65 329.05 193.69 329.37 136.26 153.87"/><polygon class="cls-65" points="137.22 153.55 138.18 153.24 195.61 328.73 194.65 329.05 137.22 153.55"/><polygon class="cls-66" points="138.18 153.24 139.14 152.92 196.57 328.41 195.61 328.73 138.18 153.24"/><polygon class="cls-67" points="139.14 152.92 140.1 152.6 197.53 328.1 196.57 328.41 139.14 152.92"/><polygon class="cls-68" points="140.1 152.6 141.06 152.28 198.49 327.78 197.53 328.1 140.1 152.6"/><polygon class="cls-69" points="141.06 152.28 142.01 151.97 199.45 327.46 198.49 327.78 141.06 152.28"/><polygon class="cls-70" points="142.01 151.97 142.97 151.65 199.83 325.38 199.75 327.36 199.45 327.46 142.01 151.97"/><polygon class="cls-71" points="142.97 151.65 143.93 151.33 199.94 322.47 199.83 325.38 142.97 151.65"/><polygon class="cls-72" points="143.93 151.33 144.89 151.02 200.05 319.56 199.94 322.47 143.93 151.33"/><polygon class="cls-73" points="144.89 151.02 145.85 150.7 200.16 316.65 200.05 319.56 144.89 151.02"/><polygon class="cls-74" points="145.85 150.7 146.81 150.38 200.27 313.74 200.16 316.65 145.85 150.7"/><polygon class="cls-75" points="146.81 150.38 147.77 150.06 200.38 310.83 200.27 313.74 146.81 150.38"/><polygon class="cls-76" points="147.77 150.06 148.73 149.75 200.49 307.92 200.38 310.83 147.77 150.06"/><polygon class="cls-77" points="148.73 149.75 149.69 149.43 200.6 305.01 200.49 307.92 148.73 149.75"/><polygon class="cls-78" points="149.69 149.43 150.64 149.11 200.71 302.1 200.6 305.01 149.69 149.43"/><polygon class="cls-79" points="150.64 149.11 151.6 148.79 200.82 299.19 200.71 302.1 150.64 149.11"/><polygon class="cls-80" points="151.6 148.79 152.56 148.48 200.93 296.29 200.82 299.19 151.6 148.79"/><polygon class="cls-81" points="152.56 148.48 153.52 148.16 201.04 293.38 200.93 296.29 152.56 148.48"/><polygon class="cls-82" points="153.52 148.16 154.48 147.84 201.15 290.47 201.04 293.38 153.52 148.16"/><polygon class="cls-83" points="154.48 147.84 155.44 147.53 201.26 287.56 201.15 290.47 154.48 147.84"/><polygon class="cls-84" points="155.44 147.53 156.4 147.21 201.38 284.65 201.26 287.56 155.44 147.53"/><polygon class="cls-85" points="156.4 147.21 157.36 146.89 201.49 281.74 201.38 284.65 156.4 147.21"/><polygon class="cls-86" points="157.36 146.89 158.31 146.57 201.6 278.83 201.49 281.74 157.36 146.89"/><polygon class="cls-87" points="158.31 146.57 159.27 146.26 201.71 275.92 201.6 278.83 158.31 146.57"/><polygon class="cls-88" points="159.27 146.26 160.23 145.94 201.82 273.01 201.71 275.92 159.27 146.26"/><polygon class="cls-89" points="160.23 145.94 161.19 145.62 201.93 270.1 201.82 273.01 160.23 145.94"/><polygon class="cls-90" points="161.19 145.62 162.15 145.3 202.04 267.19 201.93 270.1 161.19 145.62"/><polygon class="cls-91" points="162.15 145.3 163.11 144.99 202.15 264.28 202.04 267.19 162.15 145.3"/><polygon class="cls-92" points="163.11 144.99 164.07 144.67 202.26 261.37 202.15 264.28 163.11 144.99"/><polygon class="cls-93" points="164.07 144.67 165.03 144.35 202.37 258.46 202.26 261.37 164.07 144.67"/><polygon class="cls-94" points="165.03 144.35 165.99 144.03 202.48 255.56 202.37 258.46 165.03 144.35"/><polygon class="cls-95" points="165.99 144.03 166.94 143.72 202.59 252.65 202.48 255.56 165.99 144.03"/><polygon class="cls-96" points="166.94 143.72 167.9 143.4 202.7 249.74 202.59 252.65 166.94 143.72"/><polygon class="cls-97" points="167.9 143.4 168.86 143.08 202.81 246.83 202.7 249.74 167.9 143.4"/><polygon class="cls-98" points="168.86 143.08 169.82 142.77 202.92 243.92 202.81 246.83 168.86 143.08"/><polygon class="cls-99" points="169.82 142.77 170.52 142.54 170.81 142.55 203.03 241.01 202.92 243.92 169.82 142.77"/><polygon class="cls-100" points="171.89 142.59 203.14 238.1 203.03 241.01 170.81 142.55 171.89 142.59"/><polygon class="cls-101" points="172.96 142.63 203.25 235.19 203.14 238.1 171.89 142.59 172.96 142.63"/><polygon class="cls-102" points="174.04 142.67 203.37 232.28 203.25 235.19 172.96 142.63 174.04 142.67"/><polygon class="cls-103" points="175.12 142.71 203.48 229.37 203.37 232.28 174.04 142.67 175.12 142.71"/><polygon class="cls-103" points="203.48 229.37 175.12 142.71 206.72 143.93 203.48 229.37"/></g><polygon class="cls-28" points="203.58 405.65 167.31 390.07 184.61 349.33 220.89 364.91 203.58 405.65"/><g class="cls-105"><polygon class="cls-28" points="196.69 323.07 196.59 323.1 158.14 335.83 152.73 322.63 86.95 178.4 170.76 150.66 196.69 323.07"/></g></g></svg>
